PathFileType	4	(X/Y/Z)	D:\TRACE\v60_Jaco2_6-2-23\JustArmDRS_Motion3_2-v60.trc
DataRate	CameraRate	NumFrames	NumMarkers	Units	OrigDataRate	OrigDataStartFrame	OrigNumFrames
100.00	100.00	      42	9	mm	100.00	3501	      7000
Frame#	Time	front left toe			Front right toe			aft left toe			aft right toe			Arm			FL body			FR body			AL Body			AR Body			
		X1	Y1	Z1	X2	Y2	Z2	X3	Y3	Z3	X4	Y4	Z4	X5	Y5	Z5	X6	Y6	Z6	X7	Y7	Z7	X8	Y8	Z8	X9	Y9	Z9	

3501	35.000	-180.54044	30.28164	-228.74931	218.18521	25.79391	-163.54369	-269.70245	4.63296	407.93103	140.07538	-0.16875	423.59186	21.34979	1124.36829	-590.55841	-36.94709	598.22681	-326.22488	120.49966	596.36597	-305.74341	-151.76703	562.02844	610.87018	-1.69426	551.62115	629.67700	
3502	35.010	-181.12683	30.21020	-228.79036	217.45506	25.81754	-163.54378	-270.31393	4.08391	408.77490	139.38257	-0.08502	423.47028	20.44764	1124.48584	-590.55389	-37.79299	598.21625	-326.29993	119.10454	596.42609	-305.57474	-152.24416	562.05304	610.77216	-2.31996	551.63965	629.64453	
3503	35.020	-181.89131	30.29381	-228.76846	216.57004	25.77876	-163.59547	-270.98099	4.05143	408.68668	138.03520	-0.38795	423.29593	19.57405	1124.56079	-590.46497	-38.55835	598.31580	-326.29242	118.55882	596.38574	-305.52164	-152.80524	562.18408	610.72168	-3.22623	551.65765	629.59100	
3504	35.030	-182.83826	30.46196	-228.74455	216.08740	25.78637	-163.34911	-270.38150	3.43093	408.51697	137.49339	-0.43608	423.28867	18.71996	1124.63367	-590.58893	-39.22945	598.42871	-326.37634	117.44429	596.48993	-305.72256	-153.92371	562.09698	610.73340	-3.70549	551.65686	629.58966	
3505	35.040	-183.35875	30.28818	-228.79616	215.42657	25.70025	-163.13046	-272.28152	4.20696	408.34070	137.22087	-0.16308	423.47983	17.64655	1124.65894	-590.62329	-39.91749	598.09509	-326.12631	117.25649	596.42108	-306.03372	-154.59256	562.13239	610.74921	-4.33921	551.72339	629.55786	
3506	35.050	-184.03505	30.36260	-228.86769	214.56056	25.65956	-163.26765	-273.25092	4.17330	408.43002	136.21823	-0.08458	423.50012	16.67416	1124.65430	-590.65417	-39.52045	597.71558	-325.78247	116.31082	596.45502	-305.95764	-155.46684	562.16626	610.63892	-5.27516	551.76752	629.57544	
3507	35.060	-184.82417	30.10652	-228.58682	213.54555	25.61997	-163.53908	-273.94598	4.38067	408.38513	135.37468	-0.08670	423.38306	15.94115	1124.56799	-590.77112	-41.80941	598.07819	-326.29291	115.39008	596.40222	-305.82996	-156.16353	562.06445	610.55933	-5.81499	551.77521	629.57562	
3508	35.070	-185.42963	29.96671	-228.87770	213.00450	25.70686	-163.70770	-274.71518	4.53595	408.40747	134.90617	0.12832	423.29984	14.91618	1124.41565	-590.96930	-42.44584	597.99054	-326.48727	114.54187	596.37964	-305.86459	-156.79488	562.13190	610.52234	-6.57909	551.97479	629.52771	
3509	35.080	-186.18074	30.02925	-228.85257	212.67807	25.80915	-163.70642	-274.99014	4.35188	408.36453	134.33730	0.18053	423.19736	13.93677	1124.30530	-591.28546	-43.41792	598.10571	-326.64359	113.64721	596.34290	-305.89078	-157.40166	562.21552	610.47729	-7.46131	551.97675	629.50287	
3510	35.090	-187.09769	30.15110	-229.00325	211.86327	25.72531	-163.73013	-275.91522	4.43502	408.47220	133.26045	0.03401	423.09784	13.25957	1124.15942	-591.39819	-44.14505	598.25397	-326.72675	112.98798	596.23291	-305.98428	-158.07121	562.34509	610.42908	-8.44164	552.04700	629.26324	
3511	35.100	-187.41068	29.92080	-229.04176	210.63100	25.48720	-163.97789	-276.86530	4.65518	408.36249	132.66595	0.15162	423.10147	12.45372	1123.98511	-591.66107	-45.09383	598.08636	-326.75165	112.32301	596.24396	-306.24243	-158.86966	562.44397	610.34454	-8.90340	552.14716	629.15552	
3512	35.110	-187.67810	29.39507	-229.16519	210.04187	25.50549	-164.09402	-277.56537	4.74956	408.30731	132.04651	0.38282	423.22073	11.40138	1123.96948	-591.82336	-45.43011	597.58716	-326.44037	111.41467	596.21002	-306.13837	-159.59988	562.49915	610.20923	-9.59779	552.21399	629.07965	
3513	35.120	-189.01683	29.92836	-229.08598	209.69901	25.51844	-164.08279	-278.02493	4.79258	408.27002	131.56889	0.62200	423.32968	10.47583	1123.78210	-592.01855	-46.41715	597.65588	-326.71442	110.54919	596.22119	-306.24359	-160.80421	562.68939	610.28546	-10.42062	552.43811	629.07477	
3514	35.130	-189.59184	29.75808	-229.21545	209.34091	25.54324	-164.01671	-278.66983	4.93725	408.19290	130.52574	0.66887	423.00616	9.71134	1123.67981	-592.17151	-47.29216	597.74432	-327.23123	109.81738	596.21814	-306.40298	-161.40781	562.83167	610.05621	-11.08526	552.51135	628.92328	
3515	35.140	-190.24973	29.72346	-229.19548	208.51219	25.37413	-164.08626	-279.39630	5.08302	408.21851	130.15613	0.65395	422.83752	8.62551	1123.63037	-592.52094	-48.18269	597.85846	-327.32947	108.97963	596.20758	-306.61746	-161.83578	562.77960	609.92206	-11.57654	552.61798	628.71613	
3516	35.150	-190.84280	29.36811	-228.98772	207.65923	25.33462	-164.17761	-279.99286	5.07128	408.19049	129.48839	0.69208	422.78806	7.79710	1123.61096	-592.68817	-48.94685	597.74744	-327.49866	108.46944	596.20508	-307.05634	-162.58443	562.75659	609.84216	-12.71125	552.82935	628.49414	
3517	35.160	-191.42943	29.42722	-229.31972	206.92558	25.25595	-164.13338	-280.53613	5.05218	408.27698	129.02444	0.85273	422.93323	6.80009	1123.60339	-592.87372	-49.75356	597.56396	-327.64694	107.75555	596.07990	-307.12836	-163.64917	562.93750	609.73352	-13.15508	552.87659	628.42523	
3518	35.170	-192.14700	29.43035	-229.46054	206.52422	25.32611	-164.08562	-281.31473	5.29200	408.20709	128.18311	1.00123	422.87842	5.82314	1123.44971	-593.08752	-50.27068	597.31439	-327.53555	106.87433	596.04852	-307.27139	-164.01830	563.08014	609.60498	-13.79308	552.99725	628.29370	
3519	35.180	-192.60341	29.23643	-229.49594	205.87956	25.17394	-164.19794	-281.88455	5.42283	408.07312	127.31251	1.25974	422.85065	4.94507	1123.07019	-593.35516	-51.00830	597.32336	-327.71823	105.89691	596.02222	-307.32614	-164.53465	563.19135	609.36139	-14.87209	553.22540	628.13818	
3520	35.190	-193.21504	29.27701	-229.56378	205.23523	25.04528	-164.27658	-282.40558	5.49278	407.98276	126.86732	1.45011	422.74338	4.06134	1122.96790	-593.67987	-52.05114	597.25317	-328.04507	104.95896	595.91541	-307.50702	-165.92670	563.50702	609.11554	-15.29165	553.36072	628.03967	
3521	35.200	-193.89980	29.06786	-229.44179	204.76752	25.01748	-164.35129	-282.98886	5.71586	407.95956	126.73826	1.48244	422.72818	2.98201	1122.88733	-594.05487	-52.72262	597.09906	-328.09207	104.22053	595.83728	-307.64957	-166.20432	563.54163	609.11780	-16.03605	553.57452	627.88965	
3522	35.210	-194.56046	28.94840	-229.68146	204.18573	24.93404	-164.52061	-283.43076	5.89034	407.93253	126.12817	1.48186	422.66083	2.11395	1122.76746	-594.34229	-53.40011	596.78632	-327.95825	103.49452	595.72101	-307.75995	-166.65570	563.64215	609.01025	-16.69020	553.71533	627.75482	
3523	35.220	-194.93362	28.70557	-229.78157	203.99571	24.95804	-164.45866	-283.89767	5.95249	407.91019	125.10437	1.80993	422.48425	1.23302	1122.45618	-594.69391	-54.16154	597.04028	-328.42361	102.68906	595.77374	-307.93109	-167.50101	563.89496	608.95349	-17.45340	553.93121	627.65710	
3524	35.230	-195.33330	28.62812	-229.87642	203.73589	24.91421	-164.55983	-284.62241	6.18315	407.73264	124.90089	2.20767	422.49890	0.22763	1122.24207	-595.04041	-55.11089	597.01001	-328.64084	102.29182	595.71484	-307.95911	-168.32100	564.00116	608.80927	-18.14412	554.19183	627.51337	
3525	35.240	-195.64577	28.33869	-230.06563	202.76372	24.70226	-164.73735	-285.17548	6.52667	407.74210	124.53773	2.55598	422.48346	-0.53239	1122.09875	-595.34552	-55.34582	596.72565	-328.25531	101.51600	595.66876	-308.12561	-168.96019	564.14813	608.70624	-18.70502	554.30280	627.35010	
3526	35.250	-196.44745	28.49824	-229.79913	202.02742	24.51364	-164.81865	-285.55527	6.61501	407.66907	124.23607	2.69149	422.36557	-1.38775	1121.94873	-595.72375	-56.45687	596.56464	-328.85788	100.67588	595.62299	-308.20441	-169.90549	564.52014	608.40430	-19.78592	554.53912	627.23358	
3527	35.260	-196.85831	28.40639	-230.03036	201.63332	24.54685	-164.89313	-284.91409	6.17047	407.49643	123.55012	2.66603	422.26581	-2.40031	1121.82678	-596.00555	-57.20174	596.55554	-329.06723	99.94580	595.50958	-308.39136	-170.43269	564.40405	608.30511	-20.27495	554.69196	627.15436	
3528	35.270	-197.24092	28.16030	-230.18176	201.27228	24.57747	-164.97929	-286.12198	6.59076	407.42807	122.87173	2.84907	422.17874	-3.50143	1121.68579	-596.30365	-57.99109	596.51227	-329.33221	99.22067	595.49615	-308.66824	-171.12526	564.62567	608.13184	-20.87533	554.94727	626.85663	
3529	35.280	-197.79747	28.03220	-230.26707	200.84747	24.59857	-165.11678	-286.84967	6.89852	407.31671	122.62313	3.15888	422.17236	-4.34329	1121.62207	-596.65454	-58.58883	596.57202	-329.40326	98.50120	595.48761	-308.86700	-171.58669	564.70117	607.99500	-21.68254	555.20404	626.54755	
3530	35.290	-198.28922	27.96751	-230.30600	200.65053	24.63704	-165.17647	-287.43961	7.13191	407.27911	122.28624	3.52007	422.26044	-5.21768	1121.39490	-597.06610	-59.38603	596.43542	-329.76062	98.29773	595.53357	-309.17651	-172.12381	564.79144	607.81744	-22.23967	555.35583	626.45618	
3531	35.300	-198.51537	27.79101	-230.34923	199.96684	24.42939	-165.46013	-287.66602	7.14589	407.26837	121.85039	3.76551	422.09183	-5.92026	1121.21997	-597.37164	-59.72608	596.04688	-329.63223	97.51434	595.43921	-309.33432	-173.26453	565.05164	607.45770	-22.92034	555.62903	626.24207	
3532	35.310	-198.78586	27.40543	-230.12073	199.58830	24.25877	-165.58395	-287.96524	7.32079	407.21237	121.65903	3.85285	421.99490	-6.69901	1120.87231	-597.81787	-60.49927	595.93298	-329.77151	96.67729	595.27686	-309.38095	-173.72151	565.11432	607.27039	-23.42997	555.88104	626.04248	
3533	35.320	-199.06146	27.30441	-230.43987	199.47769	24.17353	-165.59772	-288.35275	7.58387	407.12646	121.52434	3.99700	421.90454	-7.44602	1120.54321	-598.19489	-61.23833	595.92975	-330.21777	96.11356	595.21881	-309.54001	-174.25244	565.27338	607.17236	-24.24637	556.17896	625.97595	
3534	35.330	-199.31889	27.14104	-230.61612	199.23416	24.20958	-165.75583	-288.68607	7.92079	407.05484	121.23019	4.41148	421.69730	-8.63687	1120.49268	-598.76764	-61.81405	595.78137	-330.33429	95.32702	595.19702	-309.71347	-174.76746	565.47327	606.93878	-24.78761	556.43982	625.86304	
3535	35.340	-199.45795	26.75766	-230.74901	199.08086	24.13905	-165.80318	-288.89874	8.04658	406.98416	120.90925	4.66514	421.67673	-9.55867	1120.34631	-599.05542	-62.40793	595.56396	-330.44794	94.83794	595.10559	-309.87943	-175.40425	565.68555	606.80847	-25.27108	556.73938	625.67822	
3536	35.350	-199.85316	26.85505	-230.71144	198.90097	24.05043	-165.83952	-289.00827	8.17251	406.98389	120.43783	4.94517	421.58820	-10.56288	1120.08252	-599.47650	-62.71093	595.08978	-330.32483	94.27254	595.12964	-310.08292	-176.08412	565.86731	606.54858	-25.92496	557.06738	625.47723	
3537	35.360	-200.02448	26.60131	-230.80524	198.64389	23.97462	-165.94601	-289.16281	8.44781	406.91464	119.94375	5.12150	421.37683	-11.39499	1119.88086	-599.86743	-63.44271	595.40710	-330.95609	93.75150	595.13354	-310.24893	-176.71373	566.00513	606.22766	-26.71238	557.26727	625.29865	
3538	35.370	-200.17085	26.44519	-230.92261	198.43271	23.89586	-166.06802	-289.38916	8.64733	406.79971	119.74110	5.35309	421.28107	-12.39972	1119.71460	-600.34863	-64.09863	595.31226	-331.26541	92.99898	595.22540	-310.48419	-177.29906	566.09882	606.10583	-27.09742	557.35748	625.03101	
3539	35.380	-200.30167	26.07557	-230.88029	198.45244	23.88201	-166.07576	-289.68875	8.90647	406.62442	119.70763	5.48740	421.13477	-13.24952	1119.38794	-600.67859	-64.27720	594.91901	-331.02310	92.72032	595.18439	-310.69775	-177.87154	566.27130	605.97076	-27.75235	557.72382	624.79254	
3540	35.390	-200.42039	25.92556	-231.17107	198.15170	23.76769	-166.28273	-289.83899	9.11959	406.55145	119.63175	5.76803	421.00800	-14.13310	1119.18701	-601.00964	-64.97282	594.91339	-331.71658	92.41330	595.13745	-311.22949	-178.24850	566.41003	605.81262	-28.03073	557.95160	624.64557	
3541	35.400	-200.47900	25.72871	-231.21004	198.33096	23.77898	-166.22098	-289.84698	9.22442	406.55350	119.49770	6.06791	420.81058	-14.88365	1119.00354	-601.38068	-65.47143	594.48425	-331.73468	91.92811	595.08539	-311.43793	-178.67699	566.48529	605.57202	-28.73294	558.14502	624.45538	
3542	35.410	-200.49472	25.54846	-231.23059	198.12943	23.57917	-166.34828	-289.94366	9.44107	406.43188	119.46215	6.13800	420.76624	-15.63787	1118.91028	-601.80341	-66.14078	594.65338	-332.17084	91.28559	594.93268	-311.64478	-179.13773	566.54047	605.32135	-29.33918	558.41351	624.38330	
